<svg width="26" height="30" viewBox="0 0 26 30" fill="none" xmlns="http://www.w3.org/2000/svg">
<path fill-rule="evenodd" clip-rule="evenodd" d="M13.0001 1.1547L1.00977 8.07735V21.9226L13.0001 28.8453L24.9905 21.9226V8.07735L13.0001 1.1547ZM25.9905 7.5L13.0001 0L0.00976562 7.5V22.5L13.0001 30L25.9905 22.5V7.5Z" fill="#9F6B08"/>
<path fill-rule="evenodd" clip-rule="evenodd" d="M10.8284 18.5357L7.64645 15.3537C7.45118 15.1584 7.45118 14.8419 7.64645 14.6466L10.8284 11.4646C11.0237 11.2694 11.3403 11.2694 11.5355 11.4646C11.7308 11.6599 11.7308 11.9765 11.5355 12.1717L9.20711 14.5001H18V15.5001H9.20711L11.5355 17.8286C11.7308 18.0238 11.7308 18.3404 11.5355 18.5357C11.3403 18.7309 11.0237 18.7309 10.8284 18.5357Z" fill="#9F6B08"/>
</svg>
