<svg width="31" height="31" viewBox="0 0 31 31" fill="none" xmlns="http://www.w3.org/2000/svg">
<path fill-rule="evenodd" clip-rule="evenodd" d="M0 8.5824C0 3.84271 3.84202 0 8.5824 0H22.417C22.4172 0 22.4174 0 22.4176 0C27.1576 0.000346273 31 3.84221 31 8.5824V22.417C31 27.1573 27.1573 31 22.417 31H8.58304C3.84274 31 0 27.158 0 22.4176V8.5824ZM22.417 1H8.5824C4.39436 1 1 4.39495 1 8.5824V22.4176C1 26.6056 4.39492 30 8.58304 30H22.417C26.605 30 30 26.605 30 22.417V8.5824C30 4.3946 26.6054 1.00035 22.4176 1C22.4174 1 22.4172 1 22.417 1Z" fill="white"/>
<path fill-rule="evenodd" clip-rule="evenodd" d="M15.4998 8.75879C11.7766 8.75879 8.7583 11.7771 8.7583 15.5003C8.7583 19.2235 11.7766 22.2418 15.4998 22.2418C19.223 22.2418 22.2413 19.2235 22.2413 15.5003C22.2413 11.7771 19.223 8.75879 15.4998 8.75879ZM7.7583 15.5003C7.7583 11.2248 11.2243 7.75879 15.4998 7.75879C19.7753 7.75879 23.2413 11.2248 23.2413 15.5003C23.2413 19.7758 19.7753 23.2418 15.4998 23.2418C11.2243 23.2418 7.7583 19.7758 7.7583 15.5003Z" fill="white"/>
<path d="M24.0245 7.7214C24.733 7.7214 25.3073 7.14706 25.3073 6.43858C25.3073 5.7301 24.733 5.15576 24.0245 5.15576C23.316 5.15576 22.7417 5.7301 22.7417 6.43858C22.7417 7.14706 23.316 7.7214 24.0245 7.7214Z" fill="white"/>
</svg>
