<svg width="44" height="31" viewBox="0 0 44 31" fill="none" xmlns="http://www.w3.org/2000/svg">
<path fill-rule="evenodd" clip-rule="evenodd" d="M38.9011 0.923562C39.8864 1.19273 40.7847 1.71355 41.5074 2.43497C42.2359 3.16224 42.7604 4.06785 43.0282 5.06122L42.5454 5.19137L43.0307 5.07083C43.7002 7.76627 44.007 11.6254 43.9999 15.4651C43.9927 19.307 43.6711 23.1799 43.0613 25.908C43.0597 25.9151 43.058 25.9221 43.0561 25.9291C42.7883 26.9224 42.2639 27.8281 41.5353 28.5553C40.8068 29.2826 39.8998 29.806 38.9051 30.0732L38.8953 30.0759L38.8952 30.0758C37.5344 30.4117 35.0438 30.6448 32.04 30.7936C29.0208 30.9431 25.4398 31.009 21.8711 30.999C18.3023 30.9891 14.7409 30.9033 11.7607 30.7489C8.79513 30.5952 6.36534 30.3719 5.08493 30.0777C5.07899 30.0763 5.07307 30.0748 5.06718 30.0732C4.0725 29.806 3.16549 29.2826 2.43698 28.5553C1.70846 27.8281 1.184 26.9225 0.916195 25.9291L0.913294 25.9183L0.913415 25.9183C0.280641 23.3443 -0.0070146 19.3806 0.000129766 15.4667C0.00727714 11.5512 0.309679 7.62045 0.883562 5.10793C0.884993 5.10167 0.886544 5.09543 0.888216 5.08923C1.15584 4.09565 1.68022 3.18979 2.40875 2.4623C3.13728 1.73483 4.04438 1.21126 5.0392 0.943914C5.0484 0.94144 5.05768 0.93923 5.06701 0.937287C8.6243 0.196367 16.4517 -0.0478069 23.6511 0.00751558C27.2621 0.0352629 30.7347 0.138628 33.4633 0.295441C34.827 0.373817 36.0096 0.465807 36.9328 0.569024C37.8121 0.667343 38.5139 0.781174 38.9011 0.923562ZM42.0614 5.3168C41.8389 4.49468 41.4043 3.74504 40.8009 3.14269C40.1963 2.53918 39.4435 2.10469 38.6177 1.88283C38.6007 1.87826 38.584 1.8728 38.5675 1.86646C38.3269 1.77363 37.7434 1.6659 36.8217 1.56283C35.9234 1.4624 34.7605 1.37164 33.4059 1.29379C30.6978 1.13815 27.2422 1.03514 23.6435 1.00749C16.4334 0.952083 8.72664 1.20026 5.28513 1.91332C4.46456 2.13637 3.7166 2.56954 3.11535 3.16992C2.51303 3.77137 2.07901 4.51961 1.85627 5.34017C1.30817 7.74649 1.00721 11.5862 1.00013 15.4686C0.993034 19.3549 1.2806 23.219 1.88315 25.6741C2.10573 26.496 2.54023 27.2454 3.14348 27.8476C3.74589 28.449 4.49553 28.8825 5.31787 29.1051C6.50367 29.376 8.84481 29.5964 11.8124 29.7502C14.7729 29.9036 18.3176 29.9891 21.8739 29.999C25.4303 30.0089 28.9932 29.9432 31.9905 29.7948C34.9992 29.6458 37.3951 29.4151 38.6505 29.1062C39.4744 28.8839 40.2255 28.4499 40.8288 27.8476C41.4309 27.2466 41.8649 26.499 42.0878 25.679C42.6741 23.0493 42.9928 19.2614 42.9999 15.4632C43.007 11.66 42.7014 7.8968 42.0614 5.3168Z" fill="white"/>
<path fill-rule="evenodd" clip-rule="evenodd" d="M17.5783 8.63288C17.7326 8.54344 17.9228 8.54292 18.0775 8.6315L29.308 15.0607C29.4636 15.1498 29.5596 15.3153 29.5596 15.4946C29.5596 15.6739 29.4636 15.8395 29.308 15.9286L18.0775 22.3578C17.9228 22.4463 17.7326 22.4458 17.5783 22.3564C17.4241 22.267 17.3291 22.1021 17.3291 21.9238V9.06543C17.3291 8.88712 17.4241 8.72231 17.5783 8.63288ZM18.3291 9.92781V21.0615L28.0532 15.4946L18.3291 9.92781Z" fill="white"/>
</svg>
